<svg width="16" height="20" viewBox="0 0 16 20" fill="none" xmlns="http://www.w3.org/2000/svg">
<path d="M8 12.0001C10.206 12.0001 12 10.2061 12 8.00006C12 5.79405 10.206 4.00003 8 4.00003C5.79402 4.00003 4.00004 5.79405 4.00004 8.00006C4.00004 10.2061 5.79402 12.0001 8 12.0001ZM8 6.00005C9.10299 6.00005 9.99998 6.89706 9.99998 8.00006C9.99998 9.10307 9.10299 10.0001 8 10.0001C6.89701 10.0001 6.00002 9.10307 6.00002 8.00006C6.00002 6.89706 6.89701 6.00005 8 6.00005Z" fill="#0A365C"/>
<path d="M7.42001 19.8142C7.58925 19.935 7.79203 20 8 20C8.20797 20 8.41075 19.935 8.57999 19.8142C8.88399 19.5992 16.0289 14.4401 15.9999 8.00006C15.9999 3.58903 12.411 0 8 0C3.58905 0 8.80368e-05 3.58903 8.80368e-05 7.99506C-0.0289116 14.4401 7.11601 19.5992 7.42001 19.8142ZM8 2.00002C11.309 2.00002 13.9999 4.69104 13.9999 8.00506C14.0209 12.4431 9.61198 16.4281 8 17.7351C6.38902 16.4271 1.97907 12.4411 2.00007 8.00006C2.00007 4.69104 4.69104 2.00002 8 2.00002Z" fill="#0A365C"/>
</svg>
