<svg id="Слой_1" data-name="Слой 1" xmlns="http://www.w3.org/2000/svg" viewBox="0 0 200 200"><defs><style>.cls-1,.cls-2{fill:none;stroke-miterlimit:10;stroke-width:1.5px;}.cls-1{stroke:#c8d550;stroke-linecap:round;}.cls-2{stroke:#84909d;}</style></defs><title>iacn_q</title><line class="cls-1" x1="120.38" y1="68.13" x2="130.6" y2="68.13"/><path class="cls-1" d="M56.81,129.45c4.06,0,4.06-4.76,4.06-4.76s0,4.76,4.06,4.76S69,124.69,69,124.69s.42,4.76,4.06,4.76,4.06-4.76,4.06-4.76,0,4.76,4.06,4.76,4.06-4.76,4.06-4.76.14,4.76,4.06,4.76"/><path class="cls-1" d="M81.46,129.45c4.06,0,4.06-4.76,4.06-4.76s0,4.76,4.06,4.76,4.06-4.76,4.06-4.76.42,4.76,4.06,4.76,4.06-4.76,4.06-4.76,0,4.76,4.06,4.76,4.06-4.76,4.06-4.76.14,4.76,4.06,4.76"/><path class="cls-1" d="M120.52,116.43c3.92,0,3.92-4.76,3.92-4.76s0,4.76,3.92,4.76,3.92-4.76,3.92-4.76.28,4.76,3.92,4.76,3.92-4.76,3.92-4.76,0,4.76,3.92,4.76"/><line class="cls-1" x1="74.04" y1="68.13" x2="83.83" y2="68.12"/><line class="cls-1" x1="74.04" y1="76.81" x2="83.84" y2="76.81"/><line class="cls-1" x1="74.04" y1="85.63" x2="83.84" y2="85.63"/><line class="cls-1" x1="74.05" y1="94.17" x2="83.84" y2="94.17"/><line class="cls-1" x1="70.12" y1="102.57" x2="83.84" y2="102.57"/><line class="cls-1" x1="120.38" y1="76.81" x2="130.6" y2="76.81"/><line class="cls-1" x1="120.38" y1="85.63" x2="130.6" y2="85.63"/><line class="cls-1" x1="120.38" y1="94.17" x2="130.6" y2="94.17"/><path class="cls-2" d="M120.24,141.21c-8.82-18.06-22.82-44.67-22.82-49V56.5c5.88,0,6-.14,6-6s0-5.88-6-5.88H73.76c-5.88,0-5.88.14-5.88,6s0,5.88,5.88,5.88h0v35.7c0,6-29.82,59.51-29.82,65.39s6.86,5.88,7,5.88h71.83a6.68,6.68,0,0,0,1.68-.56c1.26-.7,2.52-2.24,2.52-5.32C127.24,155.78,124.3,149.34,120.24,141.21Z"/><path class="cls-2" d="M150.07,50.48c0,5.88,0,6-6,6V160.4c0,2.94-12.6,3.92-19.46,2.52,1.26-.7,2.52-2.24,2.52-5.32,0-1.68-2.94-8.12-6.86-16.38V56.5h0c-5.88,0-5.88,0-5.88-5.88s.14-6,5.88-6h23.66C150.07,44.6,150.07,44.6,150.07,50.48Z"/><line class="cls-2" x1="73.62" y1="56.5" x2="97.28" y2="56.5"/><line class="cls-2" x1="120.38" y1="56.5" x2="144.05" y2="56.5"/></svg>