<svg width="22" height="20" viewBox="0 0 22 20" fill="none" xmlns="http://www.w3.org/2000/svg">
<path d="M21 7.35511H16.21L11.83 0.442571C11.64 0.147524 11.32 0 11 0C10.68 0 10.36 0.147524 10.17 0.453109L5.79 7.35511H1C0.45 7.35511 0 7.82929 0 8.40885C0 8.50369 0.00999996 8.59853 0.04 8.69336L2.58 18.4615C2.81 19.3467 3.58 20 4.5 20H17.5C18.42 20 19.19 19.3467 19.43 18.4615L21.97 8.69336L22 8.40885C22 7.82929 21.55 7.35511 21 7.35511ZM11 2.9294L13.8 7.35511H8.2L11 2.9294ZM17.5 17.8925L4.51 17.9031L2.31 9.46259H19.7L17.5 17.8925ZM11 11.5701C9.9 11.5701 9 12.5184 9 13.6776C9 14.8367 9.9 15.785 11 15.785C12.1 15.785 13 14.8367 13 13.6776C13 12.5184 12.1 11.5701 11 11.5701Z" fill="#0A365C"/>
</svg>
